<mxfile host="app.diagrams.net" agent="Mozilla/5.0 (Windows NT 10.0; Win64; x64) AppleWebKit/537.36 (KHTML, like Gecko) Chrome/129.0.0.0 Safari/537.36" version="24.7.16">
  <diagram name="Page-1" id="6xkhG4br1kvZjHY9Fmh8">
    <mxGraphModel dx="890" dy="477" grid="1" gridSize="10" guides="1" tooltips="1" connect="1" arrows="1" fold="1" page="1" pageScale="1" pageWidth="850" pageHeight="1100" background="none" math="0" shadow="0">
      <root>
        <mxCell id="0" />
        <mxCell id="1" parent="0" />
        <mxCell id="hM7_C1ATVKb0wB14ReLP-1" value="Digital Flake" style="text;html=1;align=center;verticalAlign=middle;resizable=0;points=[];autosize=1;strokeColor=none;fillColor=none;" parent="1" vertex="1">
          <mxGeometry x="335" y="50" width="90" height="30" as="geometry" />
        </mxCell>
        <mxCell id="hM7_C1ATVKb0wB14ReLP-2" value="0" style="rounded=0;whiteSpace=wrap;html=1;" parent="1" vertex="1">
          <mxGeometry x="90" y="130" width="620" height="350" as="geometry" />
        </mxCell>
        <mxCell id="hM7_C1ATVKb0wB14ReLP-3" value="Data Flow" style="text;html=1;align=center;verticalAlign=middle;resizable=0;points=[];autosize=1;strokeColor=none;fillColor=none;" parent="1" vertex="1">
          <mxGeometry x="350" y="90" width="80" height="30" as="geometry" />
        </mxCell>
        <mxCell id="hM7_C1ATVKb0wB14ReLP-9" style="edgeStyle=orthogonalEdgeStyle;rounded=0;orthogonalLoop=1;jettySize=auto;html=1;exitX=1;exitY=0.5;exitDx=0;exitDy=0;entryX=0;entryY=0.5;entryDx=0;entryDy=0;" parent="1" source="hM7_C1ATVKb0wB14ReLP-5" target="hM7_C1ATVKb0wB14ReLP-6" edge="1">
          <mxGeometry relative="1" as="geometry" />
        </mxCell>
        <mxCell id="hM7_C1ATVKb0wB14ReLP-5" value="Category" style="rounded=1;whiteSpace=wrap;html=1;" parent="1" vertex="1">
          <mxGeometry x="90" y="160" width="120" height="30" as="geometry" />
        </mxCell>
        <mxCell id="hM7_C1ATVKb0wB14ReLP-10" style="edgeStyle=orthogonalEdgeStyle;rounded=0;orthogonalLoop=1;jettySize=auto;html=1;exitX=1;exitY=0.5;exitDx=0;exitDy=0;entryX=0;entryY=0.5;entryDx=0;entryDy=0;" parent="1" source="hM7_C1ATVKb0wB14ReLP-6" target="hM7_C1ATVKb0wB14ReLP-7" edge="1">
          <mxGeometry relative="1" as="geometry" />
        </mxCell>
        <mxCell id="hM7_C1ATVKb0wB14ReLP-6" value="Sub-Category" style="rounded=1;whiteSpace=wrap;html=1;" parent="1" vertex="1">
          <mxGeometry x="240" y="160" width="120" height="30" as="geometry" />
        </mxCell>
        <mxCell id="hM7_C1ATVKb0wB14ReLP-7" value="Product" style="rounded=1;whiteSpace=wrap;html=1;" parent="1" vertex="1">
          <mxGeometry x="390" y="160" width="120" height="30" as="geometry" />
        </mxCell>
        <mxCell id="hM7_C1ATVKb0wB14ReLP-14" value="1" style="text;html=1;align=center;verticalAlign=middle;whiteSpace=wrap;rounded=0;" parent="1" vertex="1">
          <mxGeometry x="200" y="140" width="20" height="20" as="geometry" />
        </mxCell>
        <mxCell id="hM7_C1ATVKb0wB14ReLP-15" value="M" style="text;html=1;align=center;verticalAlign=middle;whiteSpace=wrap;rounded=0;" parent="1" vertex="1">
          <mxGeometry x="230" y="140" width="25" height="20" as="geometry" />
        </mxCell>
        <mxCell id="hM7_C1ATVKb0wB14ReLP-16" value="1" style="text;html=1;align=center;verticalAlign=middle;whiteSpace=wrap;rounded=0;" parent="1" vertex="1">
          <mxGeometry x="350" y="140" width="20" height="20" as="geometry" />
        </mxCell>
        <mxCell id="hM7_C1ATVKb0wB14ReLP-17" value="M" style="text;html=1;align=center;verticalAlign=middle;whiteSpace=wrap;rounded=0;" parent="1" vertex="1">
          <mxGeometry x="377.5" y="140" width="25" height="20" as="geometry" />
        </mxCell>
        <mxCell id="hM7_C1ATVKb0wB14ReLP-20" style="edgeStyle=orthogonalEdgeStyle;rounded=0;orthogonalLoop=1;jettySize=auto;html=1;" parent="1" source="hM7_C1ATVKb0wB14ReLP-18" target="hM7_C1ATVKb0wB14ReLP-19" edge="1">
          <mxGeometry relative="1" as="geometry" />
        </mxCell>
        <mxCell id="hM7_C1ATVKb0wB14ReLP-18" value="Mobile&lt;br&gt;Laptop&lt;br&gt;TV" style="text;html=1;align=center;verticalAlign=middle;whiteSpace=wrap;rounded=0;" parent="1" vertex="1">
          <mxGeometry x="110" y="200" width="60" height="50" as="geometry" />
        </mxCell>
        <mxCell id="hM7_C1ATVKb0wB14ReLP-22" style="edgeStyle=orthogonalEdgeStyle;rounded=0;orthogonalLoop=1;jettySize=auto;html=1;entryX=0;entryY=0.5;entryDx=0;entryDy=0;" parent="1" source="hM7_C1ATVKb0wB14ReLP-19" target="hM7_C1ATVKb0wB14ReLP-21" edge="1">
          <mxGeometry relative="1" as="geometry" />
        </mxCell>
        <mxCell id="hM7_C1ATVKb0wB14ReLP-19" value="Mobile Company Name" style="text;html=1;align=center;verticalAlign=middle;whiteSpace=wrap;rounded=0;" parent="1" vertex="1">
          <mxGeometry x="270" y="200" width="60" height="50" as="geometry" />
        </mxCell>
        <mxCell id="hM7_C1ATVKb0wB14ReLP-21" value="Mobile Name" style="text;html=1;align=center;verticalAlign=middle;whiteSpace=wrap;rounded=0;fontStyle=1" parent="1" vertex="1">
          <mxGeometry x="402.5" y="200" width="60" height="50" as="geometry" />
        </mxCell>
        <mxCell id="hM7_C1ATVKb0wB14ReLP-23" value="Laptop&lt;div&gt;Company Name&lt;/div&gt;" style="text;html=1;align=center;verticalAlign=middle;whiteSpace=wrap;rounded=0;" parent="1" vertex="1">
          <mxGeometry x="275" y="260" width="60" height="50" as="geometry" />
        </mxCell>
        <mxCell id="hM7_C1ATVKb0wB14ReLP-24" value="TV&lt;div&gt;Company Name&lt;/div&gt;" style="text;html=1;align=center;verticalAlign=middle;whiteSpace=wrap;rounded=0;" parent="1" vertex="1">
          <mxGeometry x="275" y="330" width="60" height="50" as="geometry" />
        </mxCell>
        <mxCell id="hM7_C1ATVKb0wB14ReLP-25" value="Laptop Name" style="text;html=1;align=center;verticalAlign=middle;whiteSpace=wrap;rounded=0;fontStyle=1" parent="1" vertex="1">
          <mxGeometry x="402.5" y="260" width="60" height="50" as="geometry" />
        </mxCell>
        <mxCell id="hM7_C1ATVKb0wB14ReLP-26" value="&lt;span style=&quot;background-color: initial;&quot;&gt;TV&lt;/span&gt;&lt;div&gt;&lt;span style=&quot;background-color: initial;&quot;&gt;Name&lt;/span&gt;&lt;/div&gt;" style="text;html=1;align=center;verticalAlign=middle;whiteSpace=wrap;rounded=0;fontStyle=1" parent="1" vertex="1">
          <mxGeometry x="402.5" y="320" width="60" height="50" as="geometry" />
        </mxCell>
        <mxCell id="hM7_C1ATVKb0wB14ReLP-28" value="" style="endArrow=classic;html=1;rounded=0;exitX=1;exitY=0.5;exitDx=0;exitDy=0;entryX=0;entryY=0.5;entryDx=0;entryDy=0;" parent="1" source="hM7_C1ATVKb0wB14ReLP-18" target="hM7_C1ATVKb0wB14ReLP-23" edge="1">
          <mxGeometry width="50" height="50" relative="1" as="geometry">
            <mxPoint x="370" y="360" as="sourcePoint" />
            <mxPoint x="420" y="310" as="targetPoint" />
          </mxGeometry>
        </mxCell>
        <mxCell id="hM7_C1ATVKb0wB14ReLP-29" value="" style="endArrow=classic;html=1;rounded=0;exitX=1;exitY=0.5;exitDx=0;exitDy=0;entryX=0;entryY=0.5;entryDx=0;entryDy=0;" parent="1" source="hM7_C1ATVKb0wB14ReLP-18" target="hM7_C1ATVKb0wB14ReLP-24" edge="1">
          <mxGeometry width="50" height="50" relative="1" as="geometry">
            <mxPoint x="180" y="235" as="sourcePoint" />
            <mxPoint x="285" y="295" as="targetPoint" />
          </mxGeometry>
        </mxCell>
        <mxCell id="hM7_C1ATVKb0wB14ReLP-30" value="Realme 5&lt;div&gt;Realme 6&lt;/div&gt;&lt;div&gt;Realme 7&lt;/div&gt;&lt;div&gt;&lt;br&gt;&lt;/div&gt;" style="text;html=1;align=center;verticalAlign=middle;whiteSpace=wrap;rounded=0;" parent="1" vertex="1">
          <mxGeometry x="500" y="210" width="70" height="40" as="geometry" />
        </mxCell>
        <mxCell id="hM7_C1ATVKb0wB14ReLP-40" value="" style="endArrow=classic;html=1;rounded=0;exitX=0.985;exitY=0.574;exitDx=0;exitDy=0;exitPerimeter=0;" parent="1" source="hM7_C1ATVKb0wB14ReLP-21" target="hM7_C1ATVKb0wB14ReLP-30" edge="1">
          <mxGeometry width="50" height="50" relative="1" as="geometry">
            <mxPoint x="460" y="350" as="sourcePoint" />
            <mxPoint x="510" y="300" as="targetPoint" />
          </mxGeometry>
        </mxCell>
        <mxCell id="hM7_C1ATVKb0wB14ReLP-66" value="Tables" style="text;html=1;align=center;verticalAlign=middle;whiteSpace=wrap;rounded=0;fontStyle=1" parent="1" vertex="1">
          <mxGeometry x="360" y="1130" width="90" height="30" as="geometry" />
        </mxCell>
        <mxCell id="hM7_C1ATVKb0wB14ReLP-68" value="User" style="rounded=0;whiteSpace=wrap;html=1;" parent="1" vertex="1">
          <mxGeometry x="120" y="1330" width="70" height="30" as="geometry" />
        </mxCell>
        <mxCell id="hM7_C1ATVKb0wB14ReLP-69" value="Id" style="ellipse;whiteSpace=wrap;html=1;fontStyle=4" parent="1" vertex="1">
          <mxGeometry x="25" y="1310" width="60" height="30" as="geometry" />
        </mxCell>
        <mxCell id="hM7_C1ATVKb0wB14ReLP-70" value="name" style="ellipse;whiteSpace=wrap;html=1;" parent="1" vertex="1">
          <mxGeometry x="75" y="1270" width="65" height="30" as="geometry" />
        </mxCell>
        <mxCell id="hM7_C1ATVKb0wB14ReLP-71" value="email" style="ellipse;whiteSpace=wrap;html=1;" parent="1" vertex="1">
          <mxGeometry x="160" y="1270" width="65" height="30" as="geometry" />
        </mxCell>
        <mxCell id="hM7_C1ATVKb0wB14ReLP-72" value="password" style="ellipse;whiteSpace=wrap;html=1;" parent="1" vertex="1">
          <mxGeometry x="25" y="1360" width="65" height="30" as="geometry" />
        </mxCell>
        <mxCell id="hM7_C1ATVKb0wB14ReLP-73" value="is delete" style="ellipse;whiteSpace=wrap;html=1;" parent="1" vertex="1">
          <mxGeometry x="117.5" y="1390" width="65" height="30" as="geometry" />
        </mxCell>
        <mxCell id="hM7_C1ATVKb0wB14ReLP-77" value="" style="endArrow=none;html=1;rounded=0;exitX=0.5;exitY=0;exitDx=0;exitDy=0;entryX=0.5;entryY=1;entryDx=0;entryDy=0;" parent="1" source="hM7_C1ATVKb0wB14ReLP-73" target="hM7_C1ATVKb0wB14ReLP-68" edge="1">
          <mxGeometry width="50" height="50" relative="1" as="geometry">
            <mxPoint x="350" y="1460" as="sourcePoint" />
            <mxPoint x="400" y="1410" as="targetPoint" />
          </mxGeometry>
        </mxCell>
        <mxCell id="hM7_C1ATVKb0wB14ReLP-78" value="" style="endArrow=none;html=1;rounded=0;exitX=1;exitY=0.5;exitDx=0;exitDy=0;entryX=0;entryY=0.5;entryDx=0;entryDy=0;" parent="1" source="hM7_C1ATVKb0wB14ReLP-72" target="hM7_C1ATVKb0wB14ReLP-68" edge="1">
          <mxGeometry width="50" height="50" relative="1" as="geometry">
            <mxPoint x="160" y="1400" as="sourcePoint" />
            <mxPoint x="165" y="1370" as="targetPoint" />
          </mxGeometry>
        </mxCell>
        <mxCell id="hM7_C1ATVKb0wB14ReLP-79" value="" style="endArrow=none;html=1;rounded=0;exitX=0;exitY=0.5;exitDx=0;exitDy=0;entryX=1;entryY=0.5;entryDx=0;entryDy=0;" parent="1" source="hM7_C1ATVKb0wB14ReLP-68" target="hM7_C1ATVKb0wB14ReLP-69" edge="1">
          <mxGeometry width="50" height="50" relative="1" as="geometry">
            <mxPoint x="170" y="1410" as="sourcePoint" />
            <mxPoint x="175" y="1380" as="targetPoint" />
          </mxGeometry>
        </mxCell>
        <mxCell id="hM7_C1ATVKb0wB14ReLP-80" value="" style="endArrow=none;html=1;rounded=0;entryX=0.651;entryY=1.022;entryDx=0;entryDy=0;entryPerimeter=0;" parent="1" target="hM7_C1ATVKb0wB14ReLP-70" edge="1">
          <mxGeometry width="50" height="50" relative="1" as="geometry">
            <mxPoint x="150" y="1330" as="sourcePoint" />
            <mxPoint x="185" y="1390" as="targetPoint" />
          </mxGeometry>
        </mxCell>
        <mxCell id="hM7_C1ATVKb0wB14ReLP-81" value="" style="endArrow=none;html=1;rounded=0;entryX=0.304;entryY=0.946;entryDx=0;entryDy=0;entryPerimeter=0;" parent="1" target="hM7_C1ATVKb0wB14ReLP-71" edge="1">
          <mxGeometry width="50" height="50" relative="1" as="geometry">
            <mxPoint x="150" y="1330" as="sourcePoint" />
            <mxPoint x="195" y="1400" as="targetPoint" />
          </mxGeometry>
        </mxCell>
        <mxCell id="hM7_C1ATVKb0wB14ReLP-83" value="" style="endArrow=none;html=1;rounded=0;entryX=1;entryY=0.5;entryDx=0;entryDy=0;" parent="1" target="hM7_C1ATVKb0wB14ReLP-68" edge="1">
          <mxGeometry width="50" height="50" relative="1" as="geometry">
            <mxPoint x="450" y="1345" as="sourcePoint" />
            <mxPoint x="205" y="1410" as="targetPoint" />
          </mxGeometry>
        </mxCell>
        <mxCell id="hM7_C1ATVKb0wB14ReLP-84" value="Category" style="rounded=0;whiteSpace=wrap;html=1;" parent="1" vertex="1">
          <mxGeometry x="450" y="1330" width="70" height="30" as="geometry" />
        </mxCell>
        <mxCell id="hM7_C1ATVKb0wB14ReLP-86" value="id" style="ellipse;whiteSpace=wrap;html=1;fontStyle=4" parent="1" vertex="1">
          <mxGeometry x="400" y="1270" width="65" height="30" as="geometry" />
        </mxCell>
        <mxCell id="hM7_C1ATVKb0wB14ReLP-87" value="name" style="ellipse;whiteSpace=wrap;html=1;" parent="1" vertex="1">
          <mxGeometry x="477.5" y="1270" width="65" height="30" as="geometry" />
        </mxCell>
        <mxCell id="hM7_C1ATVKb0wB14ReLP-88" value="imageUrl" style="ellipse;whiteSpace=wrap;html=1;" parent="1" vertex="1">
          <mxGeometry x="542.5" y="1300" width="65" height="30" as="geometry" />
        </mxCell>
        <mxCell id="hM7_C1ATVKb0wB14ReLP-90" value="status" style="ellipse;whiteSpace=wrap;html=1;" parent="1" vertex="1">
          <mxGeometry x="550" y="1350" width="65" height="30" as="geometry" />
        </mxCell>
        <mxCell id="hM7_C1ATVKb0wB14ReLP-91" value="isDelete" style="ellipse;whiteSpace=wrap;html=1;" parent="1" vertex="1">
          <mxGeometry x="425" y="1380" width="65" height="30" as="geometry" />
        </mxCell>
        <mxCell id="hM7_C1ATVKb0wB14ReLP-92" value="" style="endArrow=none;html=1;rounded=0;entryX=0.5;entryY=1;entryDx=0;entryDy=0;exitX=0.5;exitY=0;exitDx=0;exitDy=0;" parent="1" source="hM7_C1ATVKb0wB14ReLP-84" target="hM7_C1ATVKb0wB14ReLP-86" edge="1">
          <mxGeometry width="50" height="50" relative="1" as="geometry">
            <mxPoint x="380" y="1310" as="sourcePoint" />
            <mxPoint x="410" y="1278" as="targetPoint" />
          </mxGeometry>
        </mxCell>
        <mxCell id="hM7_C1ATVKb0wB14ReLP-93" value="" style="endArrow=none;html=1;rounded=0;entryX=0.304;entryY=0.946;entryDx=0;entryDy=0;entryPerimeter=0;exitX=0.5;exitY=0;exitDx=0;exitDy=0;" parent="1" source="hM7_C1ATVKb0wB14ReLP-84" edge="1">
          <mxGeometry width="50" height="50" relative="1" as="geometry">
            <mxPoint x="477.5" y="1332" as="sourcePoint" />
            <mxPoint x="507.5" y="1300" as="targetPoint" />
          </mxGeometry>
        </mxCell>
        <mxCell id="hM7_C1ATVKb0wB14ReLP-94" value="" style="endArrow=none;html=1;rounded=0;entryX=0;entryY=0.5;entryDx=0;entryDy=0;exitX=0.5;exitY=0;exitDx=0;exitDy=0;" parent="1" source="hM7_C1ATVKb0wB14ReLP-84" target="hM7_C1ATVKb0wB14ReLP-88" edge="1">
          <mxGeometry width="50" height="50" relative="1" as="geometry">
            <mxPoint x="490" y="1330" as="sourcePoint" />
            <mxPoint x="550" y="1288" as="targetPoint" />
          </mxGeometry>
        </mxCell>
        <mxCell id="hM7_C1ATVKb0wB14ReLP-95" value="" style="endArrow=none;html=1;rounded=0;entryX=0;entryY=0;entryDx=0;entryDy=0;exitX=1;exitY=0.5;exitDx=0;exitDy=0;" parent="1" source="hM7_C1ATVKb0wB14ReLP-84" target="hM7_C1ATVKb0wB14ReLP-90" edge="1">
          <mxGeometry width="50" height="50" relative="1" as="geometry">
            <mxPoint x="400" y="1380" as="sourcePoint" />
            <mxPoint x="430" y="1348" as="targetPoint" />
          </mxGeometry>
        </mxCell>
        <mxCell id="hM7_C1ATVKb0wB14ReLP-96" value="" style="endArrow=none;html=1;rounded=0;entryX=0.5;entryY=1;entryDx=0;entryDy=0;exitX=0.5;exitY=0;exitDx=0;exitDy=0;" parent="1" source="hM7_C1ATVKb0wB14ReLP-91" target="hM7_C1ATVKb0wB14ReLP-84" edge="1">
          <mxGeometry width="50" height="50" relative="1" as="geometry">
            <mxPoint x="490" y="1370" as="sourcePoint" />
            <mxPoint x="520" y="1338" as="targetPoint" />
          </mxGeometry>
        </mxCell>
        <mxCell id="hM7_C1ATVKb0wB14ReLP-97" value="" style="endArrow=none;html=1;rounded=0;entryX=0.75;entryY=1;entryDx=0;entryDy=0;" parent="1" edge="1">
          <mxGeometry width="50" height="50" relative="1" as="geometry">
            <mxPoint x="500" y="1520" as="sourcePoint" />
            <mxPoint x="500" y="1360.0000000000002" as="targetPoint" />
          </mxGeometry>
        </mxCell>
        <mxCell id="hM7_C1ATVKb0wB14ReLP-99" value="Sub-Category" style="rounded=0;whiteSpace=wrap;html=1;" parent="1" vertex="1">
          <mxGeometry x="460" y="1520" width="70" height="30" as="geometry" />
        </mxCell>
        <mxCell id="hM7_C1ATVKb0wB14ReLP-100" value="id" style="ellipse;whiteSpace=wrap;html=1;fontStyle=4" parent="1" vertex="1">
          <mxGeometry x="402.5" y="1470" width="65" height="30" as="geometry" />
        </mxCell>
        <mxCell id="hM7_C1ATVKb0wB14ReLP-101" value="name" style="ellipse;whiteSpace=wrap;html=1;" parent="1" vertex="1">
          <mxGeometry x="520" y="1470" width="65" height="30" as="geometry" />
        </mxCell>
        <mxCell id="hM7_C1ATVKb0wB14ReLP-102" value="M" style="text;html=1;align=center;verticalAlign=middle;whiteSpace=wrap;rounded=0;" parent="1" vertex="1">
          <mxGeometry x="370" y="1310" width="60" height="30" as="geometry" />
        </mxCell>
        <mxCell id="hM7_C1ATVKb0wB14ReLP-104" value="1" style="text;html=1;align=center;verticalAlign=middle;whiteSpace=wrap;rounded=0;" parent="1" vertex="1">
          <mxGeometry x="200" y="1310" width="60" height="30" as="geometry" />
        </mxCell>
        <mxCell id="hM7_C1ATVKb0wB14ReLP-105" value="imageUrl" style="ellipse;whiteSpace=wrap;html=1;" parent="1" vertex="1">
          <mxGeometry x="542.5" y="1510" width="65" height="30" as="geometry" />
        </mxCell>
        <mxCell id="hM7_C1ATVKb0wB14ReLP-106" value="status" style="ellipse;whiteSpace=wrap;html=1;" parent="1" vertex="1">
          <mxGeometry x="550" y="1550" width="65" height="30" as="geometry" />
        </mxCell>
        <mxCell id="hM7_C1ATVKb0wB14ReLP-107" value="isDelete" style="ellipse;whiteSpace=wrap;html=1;" parent="1" vertex="1">
          <mxGeometry x="505" y="1580" width="65" height="30" as="geometry" />
        </mxCell>
        <mxCell id="hM7_C1ATVKb0wB14ReLP-108" value="" style="endArrow=none;html=1;rounded=0;entryX=0.5;entryY=1;entryDx=0;entryDy=0;exitX=0.25;exitY=0;exitDx=0;exitDy=0;" parent="1" source="hM7_C1ATVKb0wB14ReLP-99" target="hM7_C1ATVKb0wB14ReLP-100" edge="1">
          <mxGeometry width="50" height="50" relative="1" as="geometry">
            <mxPoint x="436.5" y="1510" as="sourcePoint" />
            <mxPoint x="463.5" y="1490" as="targetPoint" />
          </mxGeometry>
        </mxCell>
        <mxCell id="hM7_C1ATVKb0wB14ReLP-109" value="" style="endArrow=none;html=1;rounded=0;entryX=0;entryY=1;entryDx=0;entryDy=0;exitX=0.75;exitY=0;exitDx=0;exitDy=0;" parent="1" source="hM7_C1ATVKb0wB14ReLP-99" target="hM7_C1ATVKb0wB14ReLP-101" edge="1">
          <mxGeometry width="50" height="50" relative="1" as="geometry">
            <mxPoint x="520" y="1500" as="sourcePoint" />
            <mxPoint x="547" y="1480" as="targetPoint" />
          </mxGeometry>
        </mxCell>
        <mxCell id="hM7_C1ATVKb0wB14ReLP-110" value="" style="endArrow=none;html=1;rounded=0;entryX=0;entryY=0.5;entryDx=0;entryDy=0;exitX=1;exitY=0.5;exitDx=0;exitDy=0;" parent="1" source="hM7_C1ATVKb0wB14ReLP-99" target="hM7_C1ATVKb0wB14ReLP-105" edge="1">
          <mxGeometry width="50" height="50" relative="1" as="geometry">
            <mxPoint x="540" y="1540" as="sourcePoint" />
            <mxPoint x="567" y="1520" as="targetPoint" />
          </mxGeometry>
        </mxCell>
        <mxCell id="hM7_C1ATVKb0wB14ReLP-111" value="" style="endArrow=none;html=1;rounded=0;entryX=0;entryY=0.5;entryDx=0;entryDy=0;exitX=0.5;exitY=1;exitDx=0;exitDy=0;" parent="1" source="hM7_C1ATVKb0wB14ReLP-99" target="hM7_C1ATVKb0wB14ReLP-106" edge="1">
          <mxGeometry width="50" height="50" relative="1" as="geometry">
            <mxPoint x="540" y="1560" as="sourcePoint" />
            <mxPoint x="567" y="1540" as="targetPoint" />
          </mxGeometry>
        </mxCell>
        <mxCell id="hM7_C1ATVKb0wB14ReLP-112" value="" style="endArrow=none;html=1;rounded=0;entryX=0.5;entryY=0;entryDx=0;entryDy=0;exitX=0.5;exitY=1;exitDx=0;exitDy=0;" parent="1" source="hM7_C1ATVKb0wB14ReLP-99" target="hM7_C1ATVKb0wB14ReLP-107" edge="1">
          <mxGeometry width="50" height="50" relative="1" as="geometry">
            <mxPoint x="500" y="1560" as="sourcePoint" />
            <mxPoint x="527" y="1540" as="targetPoint" />
          </mxGeometry>
        </mxCell>
        <mxCell id="hM7_C1ATVKb0wB14ReLP-113" value="&lt;span&gt;&lt;i&gt;Category-Id&lt;/i&gt;&lt;/span&gt;" style="ellipse;whiteSpace=wrap;html=1;fontStyle=0" parent="1" vertex="1">
          <mxGeometry x="430" y="1570" width="70" height="30" as="geometry" />
        </mxCell>
        <mxCell id="hM7_C1ATVKb0wB14ReLP-114" value="" style="endArrow=none;html=1;rounded=0;entryX=0.5;entryY=1;entryDx=0;entryDy=0;exitX=0.5;exitY=0;exitDx=0;exitDy=0;" parent="1" source="hM7_C1ATVKb0wB14ReLP-113" target="hM7_C1ATVKb0wB14ReLP-99" edge="1">
          <mxGeometry width="50" height="50" relative="1" as="geometry">
            <mxPoint x="360" y="1500" as="sourcePoint" />
            <mxPoint x="410" y="1450" as="targetPoint" />
          </mxGeometry>
        </mxCell>
        <mxCell id="hM7_C1ATVKb0wB14ReLP-115" value="" style="endArrow=none;html=1;rounded=0;entryX=0;entryY=0.5;entryDx=0;entryDy=0;" parent="1" target="hM7_C1ATVKb0wB14ReLP-99" edge="1">
          <mxGeometry width="50" height="50" relative="1" as="geometry">
            <mxPoint x="280" y="1535" as="sourcePoint" />
            <mxPoint x="404.67" y="1540.0000000000002" as="targetPoint" />
          </mxGeometry>
        </mxCell>
        <mxCell id="hM7_C1ATVKb0wB14ReLP-116" value="Category" style="rounded=0;whiteSpace=wrap;html=1;" parent="1" vertex="1">
          <mxGeometry x="209.5" y="1520" width="70" height="30" as="geometry" />
        </mxCell>
        <mxCell id="hM7_C1ATVKb0wB14ReLP-117" value="id" style="ellipse;whiteSpace=wrap;html=1;fontStyle=4" parent="1" vertex="1">
          <mxGeometry x="110" y="1490" width="65" height="30" as="geometry" />
        </mxCell>
        <mxCell id="hM7_C1ATVKb0wB14ReLP-118" value="name" style="ellipse;whiteSpace=wrap;html=1;" parent="1" vertex="1">
          <mxGeometry x="175" y="1470" width="65" height="30" as="geometry" />
        </mxCell>
        <mxCell id="hM7_C1ATVKb0wB14ReLP-119" value="imageUrl" style="ellipse;whiteSpace=wrap;html=1;" parent="1" vertex="1">
          <mxGeometry x="250" y="1480" width="65" height="30" as="geometry" />
        </mxCell>
        <mxCell id="hM7_C1ATVKb0wB14ReLP-120" value="status" style="ellipse;whiteSpace=wrap;html=1;" parent="1" vertex="1">
          <mxGeometry x="100" y="1530" width="65" height="30" as="geometry" />
        </mxCell>
        <mxCell id="hM7_C1ATVKb0wB14ReLP-121" value="isDelete" style="ellipse;whiteSpace=wrap;html=1;" parent="1" vertex="1">
          <mxGeometry x="279.5" y="1560" width="65" height="30" as="geometry" />
        </mxCell>
        <mxCell id="hM7_C1ATVKb0wB14ReLP-122" value="&lt;span&gt;&lt;span&gt;Category-Id&lt;/span&gt;&lt;/span&gt;" style="ellipse;whiteSpace=wrap;html=1;fontStyle=3" parent="1" vertex="1">
          <mxGeometry x="130" y="1570" width="70" height="30" as="geometry" />
        </mxCell>
        <mxCell id="hM7_C1ATVKb0wB14ReLP-123" value="" style="ellipse;whiteSpace=wrap;html=1;fontStyle=0" parent="1" vertex="1">
          <mxGeometry x="209.5" y="1580" width="70.5" height="40" as="geometry" />
        </mxCell>
        <mxCell id="hM7_C1ATVKb0wB14ReLP-124" value="&lt;i&gt;subCategory id&lt;/i&gt;" style="text;html=1;align=center;verticalAlign=middle;whiteSpace=wrap;rounded=0;" parent="1" vertex="1">
          <mxGeometry x="222" y="1590" width="45" height="20" as="geometry" />
        </mxCell>
        <mxCell id="hM7_C1ATVKb0wB14ReLP-125" value="" style="endArrow=none;html=1;rounded=0;exitX=0.5;exitY=0;exitDx=0;exitDy=0;entryX=0.079;entryY=0.776;entryDx=0;entryDy=0;entryPerimeter=0;" parent="1" source="hM7_C1ATVKb0wB14ReLP-116" target="hM7_C1ATVKb0wB14ReLP-119" edge="1">
          <mxGeometry width="50" height="50" relative="1" as="geometry">
            <mxPoint x="180" y="1530" as="sourcePoint" />
            <mxPoint x="185" y="1500" as="targetPoint" />
          </mxGeometry>
        </mxCell>
        <mxCell id="hM7_C1ATVKb0wB14ReLP-126" value="" style="endArrow=none;html=1;rounded=0;entryX=0.5;entryY=1;entryDx=0;entryDy=0;exitX=0.5;exitY=0;exitDx=0;exitDy=0;" parent="1" source="hM7_C1ATVKb0wB14ReLP-116" target="hM7_C1ATVKb0wB14ReLP-118" edge="1">
          <mxGeometry width="50" height="50" relative="1" as="geometry">
            <mxPoint x="248.61" y="1520" as="sourcePoint" />
            <mxPoint x="200" y="1501.6799999999998" as="targetPoint" />
          </mxGeometry>
        </mxCell>
        <mxCell id="hM7_C1ATVKb0wB14ReLP-127" value="" style="endArrow=none;html=1;rounded=0;exitX=1;exitY=1;exitDx=0;exitDy=0;entryX=0.007;entryY=0.419;entryDx=0;entryDy=0;entryPerimeter=0;" parent="1" source="hM7_C1ATVKb0wB14ReLP-117" target="hM7_C1ATVKb0wB14ReLP-116" edge="1">
          <mxGeometry width="50" height="50" relative="1" as="geometry">
            <mxPoint x="180" y="1520" as="sourcePoint" />
            <mxPoint x="185" y="1490" as="targetPoint" />
          </mxGeometry>
        </mxCell>
        <mxCell id="hM7_C1ATVKb0wB14ReLP-128" value="" style="endArrow=none;html=1;rounded=0;exitX=1;exitY=0.5;exitDx=0;exitDy=0;entryX=0;entryY=0.5;entryDx=0;entryDy=0;" parent="1" source="hM7_C1ATVKb0wB14ReLP-120" target="hM7_C1ATVKb0wB14ReLP-116" edge="1">
          <mxGeometry width="50" height="50" relative="1" as="geometry">
            <mxPoint x="180" y="1540" as="sourcePoint" />
            <mxPoint x="185" y="1510" as="targetPoint" />
          </mxGeometry>
        </mxCell>
        <mxCell id="hM7_C1ATVKb0wB14ReLP-129" value="" style="endArrow=none;html=1;rounded=0;exitX=0.5;exitY=0;exitDx=0;exitDy=0;entryX=0;entryY=0.5;entryDx=0;entryDy=0;" parent="1" source="hM7_C1ATVKb0wB14ReLP-122" target="hM7_C1ATVKb0wB14ReLP-116" edge="1">
          <mxGeometry width="50" height="50" relative="1" as="geometry">
            <mxPoint x="190" y="1550" as="sourcePoint" />
            <mxPoint x="195" y="1520" as="targetPoint" />
          </mxGeometry>
        </mxCell>
        <mxCell id="hM7_C1ATVKb0wB14ReLP-130" value="" style="endArrow=none;html=1;rounded=0;exitX=0.5;exitY=0;exitDx=0;exitDy=0;entryX=0.5;entryY=1;entryDx=0;entryDy=0;" parent="1" source="hM7_C1ATVKb0wB14ReLP-123" target="hM7_C1ATVKb0wB14ReLP-116" edge="1">
          <mxGeometry width="50" height="50" relative="1" as="geometry">
            <mxPoint x="220" y="1560" as="sourcePoint" />
            <mxPoint x="225" y="1530" as="targetPoint" />
          </mxGeometry>
        </mxCell>
        <mxCell id="hM7_C1ATVKb0wB14ReLP-131" value="" style="endArrow=none;html=1;rounded=0;exitX=0;exitY=0;exitDx=0;exitDy=0;entryX=0.5;entryY=1;entryDx=0;entryDy=0;" parent="1" source="hM7_C1ATVKb0wB14ReLP-121" target="hM7_C1ATVKb0wB14ReLP-116" edge="1">
          <mxGeometry width="50" height="50" relative="1" as="geometry">
            <mxPoint x="260" y="1560" as="sourcePoint" />
            <mxPoint x="265" y="1530" as="targetPoint" />
          </mxGeometry>
        </mxCell>
      </root>
    </mxGraphModel>
  </diagram>
</mxfile>
